<?xml version="1.0" standalone="no"?><!DOCTYPE svg PUBLIC "-//W3C//DTD SVG 1.1//EN" "http://www.w3.org/Graphics/SVG/1.1/DTD/svg11.dtd"><svg t="1644670440712" class="icon" viewBox="0 0 1180 1024" version="1.1" xmlns="http://www.w3.org/2000/svg" p-id="1127" xmlns:xlink="http://www.w3.org/1999/xlink" width="230.46875" height="200"><defs><style type="text/css"></style></defs><path d="M284.337547 1002.134609a262.778271 262.778271 0 0 1-262.384694-262.384694v-174.92313a43.730782 43.730782 0 1 1 87.461564 0v174.92313a175.229245 175.229245 0 0 0 174.92313 174.923129h612.230953a175.360437 175.360437 0 0 0 174.92313-174.923129v-174.92313a43.730782 43.730782 0 1 1 87.461564 0v174.92313a262.73454 262.73454 0 0 1-262.384694 262.384694z m262.384694-524.769389V65.596174a43.730782 43.730782 0 1 1 87.461565 0v411.594123a43.730782 43.730782 0 1 1-87.461565 0z" fill="#231815" p-id="1128"></path><path d="M590.409293 695.36317a264.877349 264.877349 0 0 1-188.042364-77.665869l-63.803212-63.978135a43.730782 43.730782 0 0 1 61.835326-61.835326l63.934404 63.978135a178.552784 178.552784 0 0 0 252.06423 0l63.890673-63.978135a43.730782 43.730782 0 0 1 61.835326 61.835326l-63.890673 63.978135a265.008541 265.008541 0 0 1-187.82371 77.665869z" fill="#38BDFE" p-id="1129"></path></svg>